<?xml version="1.0" encoding="UTF-8" standalone="no"?>
<!-- Created with Inkscape (http://www.inkscape.org/) -->

<svg
   xmlns:svg="http://www.w3.org/2000/svg"
   xmlns="http://www.w3.org/2000/svg"
   version="1.1"
   width="55"
   height="55"
   viewBox="0 0 55 55"
   id="svg2"
   xml:space="preserve"><defs
     id="defs16" /><g
     id="stock-xo_1_"
     style="display:block">
	<defs
   id="defs5">
		<mask
   id="Mask">
			<path
   d="M 3,3 53,3 53,53 3,53 z"
   id="path8"
   style="fill:#ffffff;stroke:#ffffff;stroke-width:3.5" />
			<text
   x="3"
   y="35"
   id="text10"
   style="font-size:19px;font-weight:bold;fill:#000000;stroke:none;font-family:Bitstream Vera Sans">cosh</text>

		</mask>
	</defs>
	
<path
   d="m 24.5,7.5 c -1.108,0 -2,0.892 -2,2 l 0,13 -13,0 c -1.108,0 -2,0.892 -2,2 l 0,6 c 0,1.108 0.892,2 2,2 l 13,0 0,13 c 0,1.108 0.892,2 2,2 l 6,0 c 1.108,0 2,-0.892 2,-2 l 0,-13 13,0 c 1.108,0 2,-0.892 2,-2 l 0,-6 c 0,-1.108 -0.892,-2 -2,-2 l -13,0 0,-13 c 0,-1.108 -0.892,-2 -2,-2 l -6,0 z"
   id="rect2826"
   style="stroke-width:1.25;stroke-miterlimit:4;stroke-dasharray:none" /></g></svg>