<?xml version="1.0" encoding="UTF-8" standalone="no"?>
<!-- Created with Inkscape (http://www.inkscape.org/) -->

<svg
   xmlns:svg="http://www.w3.org/2000/svg"
   xmlns="http://www.w3.org/2000/svg"
   version="1.1"
   width="55"
   height="55"
   viewBox="0 0 55 55"
   id="svg2"
   xml:space="preserve"><defs
     id="defs16" /><g
     id="stock-xo_1_"
     style="display:block">
	
<g
   transform="translate(0.859621,-1.091599)"
   id="text2823"
   style="font-size:40px;font-style:normal;font-weight:normal;fill:#000000;fill-opacity:1;stroke:none;font-family:Bitstream Vera Sans"><path
     d="m 38.37866,28.513474 0,1.992187 -16.347656,0 c 0.169262,1.640632 0.761709,2.8711 1.777344,3.691406 1.015613,0.820317 2.434882,1.230473 4.257812,1.230469 1.471338,4e-6 2.975243,-0.214839 4.511719,-0.644531 1.549458,-0.442703 3.137998,-1.106765 4.765625,-1.992188 l 0,5.390625 c -1.653668,0.625001 -3.307313,1.09375 -4.960938,1.40625 -1.653663,0.325521 -3.307307,0.488281 -4.960937,0.488282 -3.958344,-1e-6 -7.037768,-1.002604 -9.238281,-3.007813 -2.187503,-2.018225 -3.281252,-4.843743 -3.28125,-8.476562 -2e-6,-3.567694 1.074216,-6.373681 3.222656,-8.417969 2.161451,-2.04425 5.130198,-3.066384 8.90625,-3.066406 3.437483,2.2e-5 6.184876,1.035177 8.242187,3.105468 2.070289,2.07033 3.105444,4.837254 3.105469,8.300782 m -7.1875,-2.324219 c -1.8e-5,-1.328111 -0.390642,-2.395818 -1.171875,-3.203125 -0.768245,-0.820295 -1.777359,-1.230451 -3.027344,-1.230469 -1.354179,1.8e-5 -2.454438,0.384132 -3.300781,1.152344 -0.846364,0.755224 -1.373707,1.848973 -1.582031,3.28125 l 9.082031,0"
     id="path2828"
     style="font-weight:bold;font-family:Sans;-inkscape-font-specification:Sans Bold" /></g></g></svg>