<?xml version="1.0" encoding="UTF-8" standalone="no"?>
<!-- Created with Inkscape (http://www.inkscape.org/) -->

<svg
   xmlns:svg="http://www.w3.org/2000/svg"
   xmlns="http://www.w3.org/2000/svg"
   version="1.1"
   width="55"
   height="55"
   viewBox="0 0 55 55"
   id="svg2"
   xml:space="preserve"><defs
     id="defs16" /><g
     id="stock-xo_1_"
     style="display:block">
	<defs
   id="defs5">
		<mask
   id="Mask">
			<path
   d="M 3,3 53,3 53,53 3,53 z"
   id="path8"
   style="fill:#ffffff;stroke:#ffffff;stroke-width:3.5" />
			<text
   x="3"
   y="35"
   id="text10"
   style="font-size:19px;font-weight:bold;fill:#000000;stroke:none;font-family:Bitstream Vera Sans">cosh</text>


		</mask>
	</defs>
	
<path
   d="m 11.236544,15.479185 c -0.783474,0.783474 -0.783474,2.044953 0,2.828427 L 20.428932,27.5 11.236544,36.692388 c -0.783474,0.783474 -0.783474,2.044953 0,2.828427 l 4.242641,4.242641 c 0.783474,0.783474 2.044953,0.783474 2.828427,0 L 27.5,34.571068 l 9.192388,9.192388 c 0.783474,0.783474 2.044953,0.783474 2.828427,0 l 4.242641,-4.242641 c 0.783474,-0.783474 0.783474,-2.044953 0,-2.828427 L 34.571068,27.5 43.763456,18.307612 c 0.783474,-0.783474 0.783474,-2.044953 0,-2.828427 l -4.242641,-4.242641 c -0.783474,-0.783474 -2.044953,-0.783474 -2.828427,0 L 27.5,20.428932 18.307612,11.236544 c -0.783474,-0.783474 -2.044953,-0.783474 -2.828427,0 l -4.242641,4.242641 z"
   id="rect2826"
   style="stroke-width:1.25;stroke-miterlimit:4;stroke-dasharray:none" /></g></svg>