<?xml version="1.0" encoding="UTF-8" standalone="no"?>
<!-- Created with Inkscape (http://www.inkscape.org/) -->

<svg
   xmlns:svg="http://www.w3.org/2000/svg"
   xmlns="http://www.w3.org/2000/svg"
   version="1.1"
   width="55"
   height="55"
   viewBox="0 0 55 55"
   id="svg2"
   xml:space="preserve"><defs
     id="defs16" /><g
     id="stock-xo_1_"
     style="display:block">

	
<g
   transform="translate(-0.00832,0.3597885)"
   id="text2821"
   style="font-size:40px;font-style:normal;font-weight:normal;line-height:125%;fill:#000000;fill-opacity:1;stroke:none;font-family:Bitstream Vera Sans"><path
     d="m 13.709492,15.821857 27.597656,0 0,5 -3.828125,0 0,9.804688 c -2.5e-5,1.679693 0.156224,2.727869 0.46875,3.144531 0.325495,0.40365 0.852838,0.605472 1.582031,0.605469 0.742159,3e-6 1.321586,-0.02604 1.738281,-0.07813 l 0,3.671875 c -0.80732,0.32552 -2.591172,0.48828 -5.351562,0.488281 -0.872419,-10e-7 -1.731793,-0.123698 -2.578125,-0.371094 -1.354187,-0.403645 -2.220071,-1.197915 -2.597656,-2.382812 -0.16929,-0.559893 -0.253925,-1.412757 -0.253907,-2.558594 l 0,-12.324219 -5.957031,0 0,16.875 -6.992187,0 0,-16.875 -3.828125,0 0,-5"
     id="path2826"
     style="font-variant:normal;font-weight:bold;font-stretch:normal;text-align:start;line-height:125%;writing-mode:lr-tb;text-anchor:start;font-family:Bitstream Charter;-inkscape-font-specification:Bitstream Charter Bold" /></g></g></svg>